Stripperland 2011 DVDRip Xvid LKRG


PLOT

In a world where women have turned into exhibitionist man-eaters,
a small band of survivors must make their way to the safety of Grandma's house.
Along the way, they encounter hordes of ravenous half-dressed strippers. Will
they survive, or be eaten alive by millions of pole dancing zombies?


General Info

Encoded By .......: BigPerm1828
Runtime ..........: 1h 43mn
File Size ........: 851 MB
Resolution .......: 704x396
IMDb URL .........: http://www.imdb.com/title/tt1710900/
Genre ............: Comedy,Horror
Language .........: English


Video
ID : 0
Format : MPEG-4 Visual
Format profile : Advanced Simple@L5
Format settings, BVOP : Yes
Format settings, QPel : No
Format settings, GMC : No warppoints
Format settings, Matrix : Default (H.263)
Codec ID : XVID
Codec ID/Hint : XviD
Duration : 1h 43mn
Bit rate : 954 Kbps
Width : 704 pixels
Height : 396 pixels
Display aspect ratio : 16:9
Frame rate : 23.976 fps
Color space : YUV
Chroma subsampling : 4:2:0
Bit depth : 8 bits
Scan type : Progressive
Compression mode : Lossy
Bits/(Pixel*Frame) : 0.143
Stream size : 705 MiB (83%)
Writing library : XviD 1.2.1 (UTC 2008-12-04)


Audio
ID : 1
Format : AC-3
Format/Info : Audio Coding 3
Mode extension : CM (complete main)
Codec ID : 2000
Duration : 1h 43mn
Bit rate mode : Constant
Bit rate : 192 Kbps
Channel(s) : 2 channels
Channel positions : Front: L R
Sampling rate : 48.0 KHz
Bit depth : 16 bits
Compression mode : Lossy
Video delay : 42ms
Stream size : 142 MiB (17%)
Alignment : Split accross interleaves
Interleave, duration : 500 ms (11.99 video frames)
Interleave, preload duration : 500 ms



Screens:

 
http://leetleech.org/images/29914267063216064143.png
 
http://leetleech.org/images/76280097503540911509.png
 
http://leetleech.org/images/11097036823262813580.png


ENJOY!